#!OML:ASF H:\Dans Jumps\Project 1\Capture day 1\Session 1\subject.ASF
:FULLY-SPECIFIED
:DEGREES
336
root 0.333397 16.3884 -11.598 19.9204 1.86329 -0.624879
lowerback 12.2242 -0.172786 -3.59249
upperback -3.10969 -0.63787 1.78541
thorax -10.1958 -0.0154345 4.09883
lowerneck -19.1922 -0.30705 -3.19951
upperneck 16.5233 0.00397749 2.35211
head 8.29141 0.0453475 1.31574
rclavicle -6.4605e-015 4.17448e-015
rhumerus -23.01 4.79276 -74.9289
rradius 45.8791
rwrist 25.4366
rhand -18.3894 -26.4064
rfingers 7.12502
rthumb 7.89447 -56.239
lclavicle -6.4605e-015 4.17448e-015
lhumerus -15.3122 -18.097 77.0301
lradius 27.9476
lwrist 20.413
lhand -25.1383 -3.01764
lfingers 7.12502
lthumb 1.37799 26.9577
rfemur -33.9948 -5.97682 22.5634
rtibia 52.1466
rfoot -28.5553 -14.1282
rtoes -13.2057
lfemur -36.4206 15.0119 -20.4951
ltibia 54.6654
lfoot -24.6859 7.60713
ltoes -27.0488
337
root 0.33789 16.6197 -11.369 19.4335 1.81234 -0.435408
lowerback 10.9935 -0.276595 -3.65472
upperback -3.24671 -0.762576 1.62733
thorax -9.61237 -0.0919751 3.96108
lowerneck -18.2477 -0.226645 -3.17036
upperneck 17.045 0.0667643 2.37129
head 8.30023 0.0719593 1.32578
rclavicle 2.60905e-015 1.49089e-015
rhumerus -23.4509 6.33888 -74.7031
rradius 47.1594
rwrist 24.7114
rhand -18.032 -26.2984
rfingers 7.12502
rthumb 8.23946 -56.1178
lclavicle 2.60905e-015 1.49089e-015
lhumerus -15.6768 -20.3599 76.1692
lradius 29.1592
lwrist 21.1694
lhand -24.7218 -2.81215
lfingers 7.12502
lthumb 1.7803 27.1602
rfemur -30.9913 -6.51905 22.126
rtibia 48.7682
rfoot -26.3975 -12.5019
rtoes -14.2695
lfemur -33.545 15.3391 -20.2355
ltibia 51.5191
lfoot -22.6972 5.17499
ltoes -27.0027
338
root 0.344306 16.8667 -11.1291 18.955 1.76091 -0.251353
lowerback 9.61583 -0.377775 -3.68327
upperback -3.33137 -0.870212 1.46483
thorax -8.88847 -0.16693 3.79076
lowerneck -17.2351 -0.143783 -3.13312
upperneck 17.5364 0.132766 2.37643
head 8.28506 0.0990665 1.32931
rclavicle 2.00027e-015 -8.59744e-015
rhumerus -23.9778 7.64536 -74.469
rradius 48.3414
rwrist 24.0907
rhand -17.719 -26.1741
rfingers 7.12502
rthumb 8.54149 -55.9813
lclavicle 2.00027e-015 -8.59744e-015
lhumerus -16.0473 -22.2293 75.3053
lradius 30.3101
lwrist 22.1175
lhand -24.4228 -2.79334
lfingers 7.12502
lthumb 2.06903 27.1764
rfemur -27.9182 -7.02923 21.6301
rtibia 45.2184
rfoot -23.8097 -10.5822
rtoes -15.3208
lfemur -30.6035 15.541 -19.9249
ltibia 48.183
lfoot -20.1895 2.53591
ltoes -26.7026
339
root 0.352761 17.1283 -10.8798 18.4878 1.71702 -0.0814282
lowerback 8.10238 -0.477681 -3.66438
upperback -3.36045 -0.96178 1.30115
thorax -8.03017 -0.240396 3.58526
lowerneck -16.1805 -0.0627896 -3.08171
upperneck 18.0121 0.198412 2.35396
head 8.25554 0.124133 1.32053
rclavicle 3.72721e-015 -4.96962e-016
rhumerus -24.5553 8.72066 -74.2342
rradius 49.3795
rwrist 23.6105
rhand -17.4791 -26.0147
rfingers 7.12502
rthumb 8.77298 -55.8124
lclavicle 3.72721e-015 -4.96962e-016
lhumerus -16.415 -23.7048 74.4439
lradius 31.4257
lwrist 23.2589
lhand -24.2286 -2.79995
lfingers 7.12502
lthumb 2.25655 27.1679
rfemur -24.8252 -7.47962 21.0881
rtibia 41.5492
rfoot -20.7242 -8.38332
rtoes -16.1353
lfemur -27.6337 15.5742 -19.5637
ltibia 44.677
lfoot -17.0104 -0.156124
ltoes -26.2228
340
root 0.363156 17.4041 -10.6226 18.0301 1.68433 0.0661573
lowerback 6.48305 -0.575325 -3.59233
upperback -3.33731 -1.0381 1.14238
thorax -7.06158 -0.310965 3.34998
lowerneck -15.1113 0.00963872 -3.03271
upperneck 18.4981 0.258978 2.30708
head 8.22564 0.144235 1.30306
rclavicle -8.67819e-015 3.50358e-015
rhumerus -25.1508 9.61132 -74.0028
rradius 50.2238
rwrist 23.254
rhand -17.316 -25.8198
rfingers 7.12502
rthumb 8.93038 -55.6108
lclavicle -8.67819e-015 3.50358e-015
lhumerus -16.7982 -24.8419 73.6082
lradius 32.4889
lwrist 24.5458
lhand -24.162 -2.78784
lfingers 7.12502
lthumb 2.32087 27.1793
rfemur -21.7664 -7.83623 20.5155
rtibia 37.8234
rfoot -17.0358 -6.006
rtoes -16.3882
lfemur -24.6734 15.3851 -19.1527
ltibia 41.0296
lfoot -13.0105 -2.69454
ltoes -25.5987
341
root 0.375346 17.6935 -10.3596 17.5816 1.66117 0.181456
lowerback 4.79607 -0.667329 -3.46289
upperback -3.27092 -1.09851 0.994676
thorax -6.01714 -0.376028 3.09105
lowerneck -14.0601 0.0702441 -3.00648
upperneck 19.0256 0.311597 2.25335
head 8.21184 0.158373 1.28639
rclavicle 1.85499e-014 -8.06942e-015
rhumerus -25.7341 10.3826 -73.7756
rradius 50.8318
rwrist 22.9794
rhand -17.212 -25.6164
rfingers 7.12502
rthumb 9.03074 -55.4031
lclavicle 1.85499e-014 -8.06942e-015
lhumerus -17.2138 -25.7443 72.8221
lradius 33.4527
lwrist 25.8749
lhand -24.2702 -2.91159
lfingers 7.12502
lthumb 2.21638 27.0566
rfemur -18.8115 -8.05389 19.9336
rtibia 34.1252
rfoot -12.603 -3.7191
rtoes -15.6856
lfemur -21.7742 14.9192 -18.6946
ltibia 37.2907
lfoot -8.06023 -4.8262
ltoes -24.8471
342
root 0.389057 17.9955 -10.0926 17.1353 1.64043 0.251838
lowerback 3.08787 -0.746369 -3.27549
upperback -3.17079 -1.13844 0.865862
thorax -4.93529 -0.430876 2.81796
lowerneck -13.043 0.123827 -3.00237
upperneck 19.6043 0.361642 2.19642
head 8.22038 0.169385 1.27248
rclavicle -8.22161e-015 3.85145e-015
rhumerus -26.2993 11.1068 -73.5482
rradius 51.1951
rwrist 22.739
rhand -17.1333 -25.4172
rfingers 7.12502
rthumb 9.10675 -55.2005
lclavicle -8.22161e-015 3.85145e-015
lhumerus -17.6766 -26.4986 72.1088
lradius 34.2851
lwrist 27.1581
lhand -24.4978 -3.07544
lfingers 7.12502
lthumb 1.99661 26.895
rfemur -16.03 -8.10745 19.3731
rtibia 30.5695
rfoot -7.31338 -2.07649
rtoes -13.7864
lfemur -18.9891 14.1504 -18.1921
ltibia 33.5542
lfoot -2.20055 -6.2659
ltoes -23.8963
343
root 0.403966 18.3079 -9.82484 16.6955 1.61091 0.272805
lowerback 1.39323 -0.804486 -3.03905
upperback -3.04442 -1.15289 0.76103
thorax -3.844 -0.470889 2.54247
lowerneck -12.0943 0.174037 -3.01912
upperneck 20.2419 0.41199 2.14695
head 8.26032 0.179707 1.2653
rclavicle -2.99419e-015 -3.05631e-015
rhumerus -26.8299 11.8368 -73.3134
rradius 51.3202
rwrist 22.4978
rhand -17.0871 -25.2054
rfingers 7.12502
rthumb 9.15126 -54.9868
lclavicle -2.99419e-015 -3.05631e-015
lhumerus -18.1739 -27.1986 71.4797
lradius 34.9488
lwrist 28.3611
lhand -24.7542 -3.23859
lfingers 7.12502
lthumb 1.74899 26.734
rfemur -13.5112 -8.0177 18.8631
rtibia 27.3127
rfoot -1.28951 -1.7055
rtoes -10.2687
lfemur -16.4042 13.0892 -17.6695
ltibia 29.9769
lfoot 4.31481 -6.85704
ltoes -22.3687
344
root 0.419877 18.6269 -9.55984 16.2795 1.5624 0.229343
lowerback -0.261507 -0.835719 -2.75211
upperback -2.91048 -1.13846 0.688598
thorax -2.77664 -0.492748 2.27422
lowerneck -11.2023 0.221232 -3.05608
upperneck 20.9156 0.459331 2.11849
head 8.32232 0.189049 1.26872
rclavicle 1.49213e-014 -3.45388e-015
rhumerus -27.344 12.6096 -73.0688
rradius 51.2577
rwrist 22.2381
rhand -17.0216 -25.0035
rfingers 7.12502
rthumb 9.21448 -54.7821
lclavicle 1.49213e-014 -3.45388e-015
lhumerus -18.7106 -27.9212 70.9508
lradius 35.4292
lwrist 29.4713
lhand -24.9359 -3.35775
lfingers 7.12502
lthumb 1.57345 26.6162
rfemur -11.3303 -7.86965 18.4495
rtibia 24.5271
rfoot 5.04935 -3.05634
rtoes -4.34625
lfemur -14.1084 11.8082 -17.146
ltibia 26.7712
lfoot 10.9676 -6.57647
ltoes -19.7786
345
root 0.43624 18.9475 -9.30225 15.9136 1.48624 0.115944
lowerback -1.86571 -0.838476 -2.42481
upperback -2.77692 -1.097 0.655491
thorax -1.74519 -0.496461 2.02752
lowerneck -10.3809 0.267018 -3.09481
upperneck 21.5911 0.504636 2.10077
head 8.39788 0.198395 1.27615
rclavicle 7.50412e-015 -3.32964e-015
rhumerus -27.8337 13.4188 -72.8134
rradius 51.0602
rwrist 21.9809
rhand -16.9468 -24.784
rfingers 7.12502
rthumb 9.28668 -54.5595
lclavicle 7.50412e-015 -3.32964e-015
lhumerus -19.2798 -28.6988 70.5255
lradius 35.7469
lwrist 30.4783
lhand -24.9376 -3.36775
lfingers 7.12502
lthumb 1.57179 26.6062
rfemur -9.54345 -7.80362 18.1648
rtibia 22.3697
rfoot 10.804 -5.97502
rtoes 3.47506
lfemur -12.1935 10.4674 -16.6538
ltibia 24.1774
lfoot 16.9388 -5.60494
ltoes -16.4669
346
root 0.452214 19.2681 -9.05589 15.6221 1.37696 -0.0689704
lowerback -3.39834 -0.814071 -2.07331
upperback -2.65461 -1.03346 0.668593
thorax -0.770087 -0.483865 1.81994
lowerneck -9.61204 0.310611 -3.12417
upperneck 22.2188 0.547089 2.08156
head 8.46727 0.207292 1.28098
rclavicle -8.63471e-016 2.5842e-015
rhumerus -28.2769 14.2228 -72.5524
rradius 50.7594
rwrist 21.7675
rhand -16.8426 -24.5793
rfingers 7.12502
rthumb 9.3872 -54.3502
lclavicle -8.63471e-016 2.5842e-015
lhumerus -19.8735 -29.5316 70.2137
lradius 35.932
lwrist 31.3584
lhand -24.694 -3.21368
lfingers 7.12502
lthumb 1.80707 26.7584
rfemur -8.17495 -7.91838 18.0206
rtibia 20.9467
rfoot 15.3212 -9.61298
rtoes 11.4704
lfemur -10.7366 9.27923 -16.2144
ltibia 22.411
lfoot 21.6056 -4.29371
ltoes -13.0519
347
root 0.466602 19.5879 -8.82403 15.4178 1.23735 -0.310686
lowerback -4.83579 -0.769547 -1.72352
upperback -2.54373 -0.958275 0.723628
thorax 0.137791 -0.460382 1.6623
lowerneck -8.87572 0.353146 -3.1147
upperneck 22.7384 0.588191 2.03689
head 8.50661 0.21697 1.26954
rclavicle 4.20554e-015 -6.99474e-015
rhumerus -28.6419 14.932 -72.3
rradius 50.3781
rwrist 21.656
rhand -16.7433 -24.394
rfingers 7.12502
rthumb 9.48299 -54.1606
lclavicle 4.20554e-015 -6.99474e-015
lhumerus -20.4863 -30.3653 70.0155
lradius 36.027
lwrist 32.0332
lhand -24.2121 -2.9539
lfingers 7.12502
lthumb 2.27253 27.0137
rfemur -7.21807 -8.20274 18.0062
rtibia 20.3083
rfoot 18.5062 -12.8081
rtoes 17.8636
lfemur -9.78367 8.47492 -15.8431
ltibia 21.5968
lfoot 24.8096 -3.08242
ltoes -10.0323
